<svg id="SvgjsSvg1001" width="288" height="288" xmlns="http://www.w3.org/2000/svg" version="1.1" xmlns:xlink="http://www.w3.org/1999/xlink" xmlns:svgjs="http://svgjs.com/svgjs"><defs id="SvgjsDefs1002"></defs><g id="SvgjsG1008"><svg xmlns="http://www.w3.org/2000/svg" width="288" height="288" viewBox="0 0 650 265"><g fill="none" fill-rule="evenodd" transform="translate(0 3)"><path fill="#ffffff" stroke="#778890" stroke-width="2.081" d="M126.007899,38.7650154 C126.007899,34.7383476 129.263975,31.4816286 133.298472,31.4816286 L386.871877,31.4816286 C390.898902,31.4816286 394.162451,34.7405 394.162451,38.7650154 L394.162451,212.307477 C394.162451,216.334145 390.906375,219.590864 386.871877,219.590864 L133.298472,219.590864 C129.271447,219.590864 126.007899,216.331993 126.007899,212.307477 L126.007899,38.7650154 Z" class="colorFFF svgShape colorStroke7510F7 svgStroke"></path><path fill="#ffffff" stroke="#778890" stroke-width="2.081" d="M142.409667 50.7365341C142.409667 49.0123794 143.813338 47.612711 145.535934 47.612711L374.37407 47.612711C376.102828 47.612711 377.500337 49.004393 377.500337 50.7365341L377.500337 180.042016C377.500337 181.766171 376.096666 183.165839 374.37407 183.165839L145.535934 183.165839C143.807176 183.165839 142.409667 181.774157 142.409667 180.042016L142.409667 50.7365341zM240.989547 219.590864L279.441148 219.590864 282.037136 253.153923 238.39356 253.153923 240.989547 219.590864z" class="colorFFF svgShape colorStroke7510F7 svgStroke"></path><path fill="#ffffff" stroke="#778890" stroke-width="2.081" d="M222.334407,253.411496 L222.334407,256.926514 C222.334407,259.006825 224.024461,260.699106 226.104395,260.699106 L294.3263,260.699106 C296.402444,260.699106 298.096288,259.006629 298.096288,256.926514 L298.096288,253.411496 C298.096288,253.265769 297.983625,253.153923 297.834738,253.153923 L222.595957,253.153923 C222.450148,253.153923 222.334407,253.269384 222.334407,253.411496 Z" transform="matrix(1 0 0 -1 0 513.853)" class="colorFFF svgShape colorStroke7510F7 svgStroke"></path><ellipse cx="260.215" cy="202.809" stroke="#778890" stroke-width="2.081" rx="4.816" ry="4.813" fill="#000000" class="color000 svgShape colorStroke7510F7 svgStroke"></ellipse><rect width="51.547" height="100.949" x="101.275" y="159.75" fill="#ffffff" stroke="#778890" stroke-width="2.081" rx="6.244" class="colorFFF svgShape colorStroke7510F7 svgStroke"></rect><path fill="#ffffff" stroke="#778890" stroke-width="2.081" d="M101.275074,170.937438 L152.822153,170.937438 L152.822153,245.686792 L101.275074,245.686792 L101.275074,170.937438 Z" class="colorFFF svgShape colorStroke7510F7 svgStroke"></path><rect width="24.733" height="2.081" x="114.812" y="164.173" fill="#778890" rx="1.041" class="color7510F7 svgShape"></rect><rect width="5.936" height="5.932" x="124.185" y="250.032" fill="#778890" rx="2.966" class="color7510F7 svgShape"></rect><ellipse cx="115.854" cy="208.143" fill="#ffffff" stroke="#778890" stroke-width="2.081" rx="3.905" ry="3.903" class="colorFFF svgShape colorStroke7510F7 svgStroke"></ellipse><rect width="18.224" height="2.081" x="124.966" y="201.378" fill="#778890" rx="1.041" class="color7510F7 svgShape"></rect><rect width="13.017" height="2.081" x="124.966" y="207.102" fill="#778890" rx="1.041" class="color7510F7 svgShape"></rect><rect width="7.81" height="2.081" x="124.966" y="212.826" fill="#778890" rx="1.041" class="color7510F7 svgShape"></rect><ellipse cx="74.849" cy="168.726" fill="#ffffff" stroke="#778890" stroke-width="2.081" rx="39.964" ry="39.937" class="colorFFF svgShape colorStroke7510F7 svgStroke"></ellipse><rect width="192.654" height="129.309" x="319.705" y="120.463" fill="#ffffff" stroke="#778890" stroke-width="2.081" rx="6.244" class="colorFFF svgShape colorStroke7510F7 svgStroke"></rect><path fill="#ffffff" stroke="#778890" stroke-width="2.081" d="M306.42601,250.02579 L306.42601,255.235353 C306.42601,258.248347 308.874337,260.699106 311.88835,260.699106 L520.175933,260.699106 C523.187441,260.699106 525.638273,258.249893 525.638273,255.235353 L525.638273,250.02579 C525.638273,249.884133 525.525092,249.771599 525.379413,249.771599 L306.68487,249.771599 C306.538643,249.771599 306.42601,249.8841 306.42601,250.02579 Z" class="colorFFF svgShape colorStroke7510F7 svgStroke"></path><path fill="#ffffff" stroke="#778890" stroke-width="2.081" d="M430.428848,249.888735 L401.270407,249.88823 C402.433781,252.961493 405.402425,255.091813 408.808279,255.091813 L422.891133,255.091813 C426.2974,255.091813 429.265465,252.961765 430.428848,249.888735 Z" class="colorFFF svgShape colorStroke7510F7 svgStroke"></path><rect width="175.32" height="105.073" x="328.295" y="132.691" fill="#ffffff" stroke="#778890" stroke-width="2.081" rx="2.081" class="colorFFF svgShape colorStroke7510F7 svgStroke"></rect><ellipse cx="254.358" cy="49.954" fill="#323a3e" rx="1.302" ry="1.301" class="color293347 svgShape"></ellipse><path fill="#ffffff" stroke="#778890" stroke-width="2.081" d="M179.899422,11.9682224 L300.177718,11.9682224 L300.177718,127.227794 C300.177718,131.24909 296.908511,134.512413 292.886465,134.512413 L187.190674,134.512413 C183.165634,134.512413 179.899422,131.247907 179.899422,127.227794 L179.899422,11.9682224 Z" class="colorFFF svgShape colorStroke7510F7 svgStroke"></path><path fill="#ffffff" stroke="#778890" stroke-width="2.081" d="M179.899422,6.23775036 C179.899422,2.21962044 183.168858,-1.040715 187.190674,-1.040715 L292.886465,-1.040715 C296.913475,-1.040715 300.177718,2.21613142 300.177718,6.23775036 L300.177718,14.0496524 L179.899422,14.0496524 L179.899422,6.23775036 Z" class="colorFFF svgShape colorStroke7510F7 svgStroke"></path><ellipse cx="191.094" cy="6.504" fill="#778890" rx="2.343" ry="2.342" class="color7510F7 svgShape"></ellipse><ellipse cx="198.904" cy="6.504" fill="#778890" rx="2.343" ry="2.342" class="color7510F7 svgShape"></ellipse><ellipse cx="206.714" cy="6.504" fill="#778890" rx="2.343" ry="2.342" class="color7510F7 svgShape"></ellipse><rect width="4.686" height="2.081" x="194.478" y="87.94" fill="#778890" rx="1.041" class="color7510F7 svgShape"></rect><rect width="4.686" height="2.081" x="194.478" y="35.905" fill="#778890" rx="1.041" class="color7510F7 svgShape"></rect><path fill="#778890" d="M203.329184 35.9046673L210.359847 35.9046673C210.934619 35.9046673 211.400562 36.3706113 211.400562 36.9453823 211.400562 37.5201533 210.934619 37.9860973 210.359847 37.9860973L203.329184 37.9860973C202.754413 37.9860973 202.288469 37.5201533 202.288469 36.9453823 202.288469 36.3706113 202.754413 35.9046673 203.329184 35.9046673zM215.044733 35.9046673L222.075396 35.9046673C222.650167 35.9046673 223.116111 36.3706113 223.116111 36.9453823 223.116111 37.5201533 222.650167 37.9860973 222.075396 37.9860973L215.044733 37.9860973C214.469962 37.9860973 214.004018 37.5201533 214.004018 36.9453823 214.004018 36.3706113 214.469962 35.9046673 215.044733 35.9046673zM226.760281 35.9046673L239.778891 35.9046673C240.353662 35.9046673 240.819606 36.3706113 240.819606 36.9453823 240.819606 37.5201533 240.353662 37.9860973 239.778891 37.9860973L226.760281 37.9860973C226.18551 37.9860973 225.719566 37.5201533 225.719566 36.9453823 225.719566 36.3706113 226.18551 35.9046673 226.760281 35.9046673zM244.463776 35.9046673L263.730679 35.9046673C264.30545 35.9046673 264.771394 36.3706113 264.771394 36.9453823 264.771394 37.5201533 264.30545 37.9860973 263.730679 37.9860973L244.463776 37.9860973C243.889005 37.9860973 243.423061 37.5201533 243.423061 36.9453823 243.423061 36.3706113 243.889005 35.9046673 244.463776 35.9046673z" class="color7510F7 svgShape"></path><rect width="4.686" height="2.081" x="194.478" y="46.312" fill="#778890" rx="1.041" class="color7510F7 svgShape"></rect><rect width="4.686" height="2.081" x="194.478" y="56.719" fill="#778890" rx="1.041" class="color7510F7 svgShape"></rect><rect width="4.686" height="2.081" x="194.478" y="67.126" fill="#778890" rx="1.041" class="color7510F7 svgShape"></rect><rect width="4.686" height="2.081" x="194.478" y="77.533" fill="#778890" rx="1.041" class="color7510F7 svgShape"></rect><rect width="4.686" height="2.081" x="194.478" y="98.348" fill="#778890" rx="1.041" class="color7510F7 svgShape"></rect><rect width="4.686" height="2.081" x="194.478" y="108.755" fill="#778890" rx="1.041" class="color7510F7 svgShape"></rect><rect width="18.224" height="2.081" x="202.288" y="46.312" fill="#778890" rx="1.041" class="color7510F7 svgShape"></rect><rect width="31.241" height="2.081" x="223.116" y="46.312" fill="#778890" rx="1.041" class="color7510F7 svgShape"></rect><rect width="13.017" height="2.081" x="256.961" y="46.312" fill="#778890" rx="1.041" class="color7510F7 svgShape"></rect><rect width="13.017" height="2.081" x="202.288" y="56.719" fill="#778890" rx="1.041" class="color7510F7 svgShape"></rect><rect width="13.017" height="2.081" x="217.909" y="56.719" fill="#778890" rx="1.041" class="color7510F7 svgShape"></rect><rect width="7.81" height="2.081" x="233.53" y="56.719" fill="#778890" rx="1.041" class="color7510F7 svgShape"></rect><rect width="26.035" height="2.081" x="202.288" y="67.126" fill="#778890" rx="1.041" class="color7510F7 svgShape"></rect><rect width="18.224" height="2.081" x="230.926" y="67.126" fill="#778890" rx="1.041" class="color7510F7 svgShape"></rect><rect width="26.035" height="2.081" x="202.288" y="77.533" fill="#778890" rx="1.041" class="color7510F7 svgShape"></rect><rect width="33.845" height="2.081" x="230.926" y="77.533" fill="#778890" rx="1.041" class="color7510F7 svgShape"></rect><rect width="18.224" height="2.081" x="202.288" y="87.94" fill="#778890" rx="1.041" class="color7510F7 svgShape"></rect><rect width="18.224" height="2.081" x="223.116" y="87.94" fill="#778890" rx="1.041" class="color7510F7 svgShape"></rect><rect width="10.414" height="2.081" x="243.944" y="87.94" fill="#778890" rx="1.041" class="color7510F7 svgShape"></rect><rect width="33.845" height="2.081" x="202.288" y="98.348" fill="#778890" rx="1.041" class="color7510F7 svgShape"></rect><rect width="15.621" height="2.081" x="202.288" y="108.755" fill="#778890" rx="1.041" class="color7510F7 svgShape"></rect><path fill="#ffffff" stroke="#778890" stroke-width="2.081" d="M414.991426,93.6643496 L557.659437,93.6643496 L557.659437,195.142937 C557.659437,199.162932 554.399545,202.419067 550.373649,202.419067 L422.277215,202.419067 C418.255898,202.419067 414.991426,199.157214 414.991426,195.142937 L414.991426,93.6643496 Z" class="colorFFF svgShape colorStroke7510F7 svgStroke"></path><path fill="#ffffff" stroke="#778890" stroke-width="2.081" d="M414.991426,87.9338775 C414.991426,83.9126798 418.251232,80.6554121 422.277215,80.6554121 L550.373649,80.6554121 C554.397843,80.6554121 557.659437,83.9124627 557.659437,87.9338775 L557.659437,95.7457795 L414.991426,95.7457795 L414.991426,87.9338775 Z" class="colorFFF svgShape colorStroke7510F7 svgStroke"></path><ellipse cx="426.186" cy="88.201" fill="#778890" rx="2.343" ry="2.342" class="color7510F7 svgShape"></ellipse><ellipse cx="433.996" cy="88.201" fill="#778890" rx="2.343" ry="2.342" class="color7510F7 svgShape"></ellipse><ellipse cx="441.806" cy="88.201" fill="#778890" rx="2.343" ry="2.342" class="color7510F7 svgShape"></ellipse><ellipse cx="503.248" cy="148.042" fill="#ffffff" stroke="#778890" stroke-width="2.342" rx="26.035" ry="26.018" class="colorFFF svgShape colorStroke7510F7 svgStroke"></ellipse><path fill="#ffffff" stroke="#778890" stroke-width="2.081" d="M500.383423 118.901688L500.383423 125.145978 506.63305 125.145978 506.63305 118.901688 500.383423 118.901688zM500.123077 170.937438L500.123077 177.181728 506.372704 177.181728 506.372704 170.937438 500.123077 170.937438zM474.088525 145.179742L474.088525 151.424032 480.338152 151.424032 480.338152 145.179742 474.088525 145.179742zM525.897284 145.179742L525.897284 151.424032 532.146911 151.424032 532.146911 145.179742 525.897284 145.179742z" class="colorFFF svgShape colorStroke7510F7 svgStroke"></path><line x1="529.282" x2="529.282" y1="124.626" y2="144.139" stroke="#778890" stroke-linecap="square" stroke-width="2.081" class="colorStroke7510F7 svgStroke"></line><line x1="529.282" x2="529.282" y1="151.944" y2="171.458" stroke="#778890" stroke-linecap="square" stroke-width="2.081" class="colorStroke7510F7 svgStroke"></line><ellipse cx="529.282" cy="123.845" fill="#778890" rx="3.124" ry="3.122" class="color7510F7 svgShape"></ellipse><ellipse cx="529.282" cy="173.279" fill="#778890" rx="3.124" ry="3.122" class="color7510F7 svgShape"></ellipse><g fill="#ffffff" stroke="#778890" stroke-width="2.081" transform="translate(439.463 115.52)" class="colorFFF svgShape colorStroke7510F7 svgStroke"><rect width="16.143" height="16.131" x="1.041" y="1.041" rx="3.122" fill="#000000" class="color000 svgShape"></rect><rect width="16.143" height="16.131" x="1.041" y="24.457" rx="3.122" fill="#000000" class="color000 svgShape"></rect><rect width="16.143" height="16.131" x="1.041" y="47.873" rx="3.122" fill="#000000" class="color000 svgShape"></rect></g><ellipse cx="632.379" cy="235.982" fill="#ffffff" stroke="#778890" stroke-width="2.081" rx="15.621" ry="15.611" class="colorFFF svgShape colorStroke7510F7 svgStroke"></ellipse><ellipse cx="632.379" cy="235.982" fill="#ffffff" stroke="#778890" stroke-width="2.081" rx="9.112" ry="9.106" class="colorFFF svgShape colorStroke7510F7 svgStroke"></ellipse><ellipse cx="611.552" cy="212.306" fill="#ffffff" stroke="#778890" stroke-width="2.081" rx="5.207" ry="5.204" class="colorFFF svgShape colorStroke7510F7 svgStroke"></ellipse><path fill="#ffffff" stroke="#778890" stroke-width="2.081" d="M588.639887,211.004965 C588.065116,211.004965 587.599172,211.470909 587.599172,212.04568 L587.599172,255.75571 C587.599172,258.629565 589.928892,260.959285 592.802747,260.959285 L628.720118,260.959285 C631.593973,260.959285 633.923693,258.629565 633.923693,255.75571 L633.923693,212.04568 C633.923693,211.470909 633.457749,211.004965 632.882978,211.004965 L588.639887,211.004965 Z" class="colorFFF svgShape colorStroke7510F7 svgStroke"></path><rect width="13.539" height="16.651" x="609.729" y="225.055" fill="#ffffff" stroke="#778890" stroke-width="2.081" rx="3.122" class="colorFFF svgShape colorStroke7510F7 svgStroke"></rect><line x1="616.368" x2="616.368" y1="211.395" y2="223.233" stroke="#778890" stroke-linecap="square" stroke-width="2.081" class="colorStroke7510F7 svgStroke"></line><path fill="#ffffff" stroke="#778890" stroke-width="2.081" d="M557.92045,260.699106 C566.547542,260.699106 573.541181,260.699106 573.541181,260.699106 C573.541181,252.077541 566.547542,245.088381 557.92045,245.088381 C549.293358,245.088381 542.299719,252.077541 542.299719,260.699106 C542.299719,260.699106 549.293358,260.699106 557.92045,260.699106 Z" class="colorFFF svgShape colorStroke7510F7 svgStroke"></path><rect width="2.083" height="3.382" x="556.879" y="244.568" fill="#778890" rx="1.041" class="color7510F7 svgShape"></rect><path fill="#ffffff" stroke="#778890" stroke-width="2.081" d="M16.391389,229.997886 C7.91344584,229.997886 1.040715,236.870617 1.040715,245.34856 C1.040715,253.826503 7.91344584,260.699234 16.391389,260.699234 L79.4070531,260.699234 C80.2692097,260.699234 80.9681256,260.000318 80.9681256,259.138161 L80.9681256,256.722169 C80.9681256,255.629844 80.123732,254.723351 79.0341503,254.645969 C71.8803755,254.137863 68.0805122,250.995245 68.0805122,245.34856 C68.0805122,239.701873 71.8803788,236.559254 79.0341596,236.05115 C80.1237345,235.973762 80.9681256,235.06727 80.9681256,233.974951 L80.9681256,231.558958 C80.9681256,230.696802 80.2692097,229.997886 79.4070531,229.997886 L16.391389,229.997886 Z" class="colorFFF svgShape colorStroke7510F7 svgStroke"></path><path stroke="#778890" stroke-width="2.081" d="M80.1864202,255.299762 C80.1864202,255.551575 79.9821545,255.75571 79.73018,255.75571 L79.73018,255.75571 L72.353427,255.75571 L16.1414223,255.75571 C10.3900278,255.75571 5.72760145,251.09627 5.72760145,245.34856 C5.72760145,239.60085 10.3900278,234.94141 16.1414223,234.94141 L72.353427,234.94141 L79.73018,234.94141 L79.73018,234.94141 C79.9821545,234.94141 80.1864202,235.145545 80.1864202,235.397358" fill="#000000" class="color000 svgShape colorStroke7510F7 svgStroke"></path><rect width="54.673" height="2.081" x="14.059" y="240.926" fill="#778890" rx="1.041" class="color7510F7 svgShape"></rect><rect width="54.673" height="2.081" x="14.059" y="247.43" fill="#778890" rx="1.041" class="color7510F7 svgShape"></rect><path fill="#778890" fill-rule="nonzero" d="M65.1265421 178.055093C63.848875 176.91993 62.5712079 175.784766 61.2935408 174.649603 59.2574411 172.842608 57.2271756 171.029822 55.1910759 169.222827 54.7243482 168.81162 54.2576205 168.394621 53.7967269 167.983414 53.7967269 168.527829 53.7967269 169.078035 53.7967269 169.622451 55.074394 168.487287 56.3520611 167.352124 57.6297282 166.21696 59.6658279 164.409965 61.6960934 162.597179 63.7321931 160.790184 64.1989208 160.378977 64.6656485 159.961978 65.1265421 159.550771 65.5816017 159.145355 65.5757676 158.317149 65.1265421 157.911734 64.6423121 157.465777 63.965557 157.47736 63.4754929 157.911734 62.1978257 159.046897 60.9201586 160.182061 59.6424915 161.317224 57.6063919 163.124219 55.5761263 164.937006 53.5400267 166.744 53.0732989 167.155208 52.6065712 167.572206 52.1456776 167.983414 51.6964522 168.383037 51.6964522 169.222827 52.1456776 169.622451 53.4233447 170.757614 54.7010118 171.892778 55.978679 173.027941 58.0147786 174.834936 60.0450442 176.647722 62.0811438 178.454717 62.5478715 178.865924 63.0145992 179.282923 63.4754929 179.69413 63.9305524 180.099546 64.6831508 180.174837 65.1265421 179.69413 65.5349289 179.253965 65.6107721 178.489467 65.1265421 178.055093L65.1265421 178.055093zM84.5825817 159.553526C85.8602488 160.688689 87.1379159 161.823853 88.415583 162.959016 90.4516827 164.766011 92.4819482 166.578798 94.5180479 168.385793 94.9847756 168.797 95.4515033 169.213999 95.9123969 169.625206 95.9123969 169.080791 95.9123969 168.530584 95.9123969 167.986169 94.6347298 169.121332 93.3570627 170.256496 92.0793956 171.391659 90.0432959 173.198654 88.0130304 175.011441 85.9769307 176.818435 85.510203 177.229643 85.0434753 177.646641 84.5825817 178.057849 84.1275221 178.463264 84.1333562 179.29147 84.5825817 179.696886 85.0668117 180.142843 85.7435668 180.131259 86.2336309 179.696886 87.5112981 178.561722 88.7889652 177.426559 90.0666323 176.291395 92.1027319 174.4844 94.1329975 172.671614 96.1690971 170.864619 96.6358249 170.453412 97.1025526 170.036413 97.5634462 169.625206 98.0126716 169.225582 98.0126716 168.385793 97.5634462 167.986169 96.2857791 166.851005 95.008112 165.715842 93.7304448 164.580678 91.6943452 162.773684 89.6640796 160.960897 87.62798 159.153902 87.1612523 158.742695 86.6945246 158.325696 86.2336309 157.914489 85.7785714 157.509074 85.025973 157.433782 84.5825817 157.914489 84.1741949 158.354654 84.0983517 159.119152 84.5825817 159.553526L84.5825817 159.553526zM70.6937286 184.875712C71.0437744 183.833215 71.3879861 182.790718 71.7380319 181.74243 72.5723077 179.234645 73.4065835 176.732652 74.2408593 174.224868 75.2443239 171.201626 76.2477884 168.184177 77.2570871 165.160935 78.1263675 162.548901 78.9956479 159.936867 79.8649282 157.324832 80.2791491 156.056461 80.7458768 154.793881 81.1309271 153.508135 81.1367612 153.49076 81.1425953 153.473385 81.1484294 153.45601 81.3409546 152.882637 80.9267338 152.164472 80.3316559 152.031264 79.6899053 151.886473 79.1006616 152.222388 78.8964682 152.842095 78.5464224 153.884592 78.2022107 154.927089 77.852165 155.975378 77.0178892 158.483162 76.1836134 160.985155 75.3493376 163.49294 74.345873 166.516181 73.3424084 169.533631 72.3331097 172.556872 71.4638294 175.168907 70.594549 177.780941 69.7252686 180.392975 69.3110478 181.655555 68.8443201 182.918135 68.4592697 184.203881 68.4534356 184.221256 68.4476015 184.238631 68.4417674 184.256006 68.2492422 184.829379 68.6634631 185.547544 69.2585409 185.680752 69.9002915 185.825543 70.4895353 185.489627 70.6937286 184.875712L70.6937286 184.875712z" class="color7510F7 svgShape"></path></g></svg></g></svg>